<svg width="184" height="54" viewBox="0 0 184 54" fill="none" xmlns="http://www.w3.org/2000/svg">
<path d="M21.3926 7C26.5753 7 30.7852 11.2099 30.7852 16.3981V24.6524C30.7852 25.2824 30.2741 25.7938 29.6444 25.7938H21.3951C16.2074 25.7938 12 21.5814 12 16.3956C12 11.2099 16.2074 7 21.3926 7Z" fill="white"/>
<path d="M44.5136 25.7939L36.2642 25.7939C35.6346 25.7939 35.1235 25.2825 35.1235 24.6525V16.3983C35.1235 11.2125 39.3309 7.00015 44.5161 7.00015C49.6988 7.00015 53.9087 11.21 53.9087 16.3983C53.9087 21.584 49.7013 25.7964 44.5161 25.7964L44.5136 25.7939Z" fill="white"/>
<path d="M21.3926 30.1345H29.642C30.2716 30.1345 30.7827 30.6459 30.7827 31.2759V39.5302C30.7827 44.7159 26.5753 48.9283 21.3901 48.9283C16.2074 48.9283 12 44.7184 12 39.5326C12 34.3469 16.2074 30.1345 21.3926 30.1345Z" fill="white"/>
<path d="M66.0371 7H72.9013C77.1976 7 79.3334 8.52682 79.3334 11.5805C79.3334 13.5396 78.1383 14.938 76.2322 15.5482V15.6001C78.4692 15.8793 80.1729 17.5346 80.1729 20.0002C80.1729 23.7654 76.6124 25.0106 73.4346 25.0106H66.0371V7ZM70.0025 14.1993H72.9507C74.2988 14.1993 75.3655 13.5372 75.3655 12.2401C75.3655 10.9431 74.1951 10.3575 72.7729 10.3575H70.0025V14.1993ZM70.0025 21.6506H73.6371C75.0618 21.6506 76.205 20.8872 76.205 19.5407C76.1285 17.9373 74.4766 17.5049 73.1038 17.5568H70.0025V21.6531V21.6506Z" fill="white"/>
<path d="M83.4 14.1226C84.6963 12.9268 86.3753 12.3413 88.3827 12.3413C90.7728 12.3413 94.0765 13.7915 94.0765 18.9551V20.0224H85.2296C85.5358 21.4726 86.5778 22.4139 88.1012 22.4139C89.1432 22.4139 90.0592 21.905 90.8222 20.9118L93.4913 22.871C92.2963 24.3978 90.237 25.3119 88.279 25.3119C86.321 25.3119 84.7457 24.7264 83.4222 23.5306C82.0741 22.3348 81.4148 20.7833 81.4148 18.8241C81.4148 16.865 82.0765 15.3134 83.3975 14.1177L83.4 14.1226ZM90.2642 17.4283C90.2642 16.0299 89.2469 15.0886 87.8987 15.0886C86.4494 15.0886 85.3555 16.0052 85.2296 17.4283H90.2642Z" fill="white"/>
<path d="M77.6815 30.7745C78.7754 31.9703 79.3334 33.5218 79.3334 35.3797C79.3334 37.1091 78.8247 38.6359 77.8322 39.9577C76.8149 41.3066 75.442 41.9663 73.6889 41.9663C71.9359 41.9663 70.563 41.4326 69.7729 40.3381H69.721V47.4608H65.9087V29.2971H69.4173V30.9252H69.4692C70.3087 29.7813 71.8075 28.9907 73.2568 28.9907C75.0865 28.9907 76.563 29.5763 77.6815 30.772V30.7745ZM69.4173 35.481C69.4173 36.4223 69.6963 37.161 70.2568 37.744C70.7902 38.3295 71.5284 38.6087 72.4692 38.6087C74.326 38.6087 75.521 37.3883 75.521 35.4785C75.521 33.5687 74.3507 32.3507 72.4445 32.3507C71.5284 32.3507 70.7926 32.6299 70.2593 33.2154C69.6988 33.801 69.4198 34.5397 69.4198 35.4785L69.4173 35.481Z" fill="white"/>
<path d="M90.042 29.1216V32.6076C89.4074 32.4297 88.8716 32.3531 88.4148 32.3531C85.8469 32.3531 85.1605 33.5736 85.1605 36.3481V41.6648H81.3457V29.302H85.1605V31.2858H85.2124C86.0519 29.759 87.2469 28.9956 88.7976 28.9956C89.3309 28.9956 89.763 29.0475 90.0445 29.1241L90.042 29.1216Z" fill="white"/>
<path d="M92.9061 30.7745C94.2024 29.5787 95.8814 28.9932 97.8888 28.9932C100.279 28.9932 103.583 30.4434 103.583 35.6069V36.6742H94.7357C95.0419 38.1245 96.0838 39.0658 97.6098 39.0658C98.6517 39.0658 99.5678 38.5568 100.331 37.5636L103 39.5228C101.805 41.0496 99.7456 41.9638 97.7875 41.9638C95.8295 41.9638 94.2542 41.3782 92.9307 40.1825C91.5826 38.9867 90.9233 37.4352 90.9233 35.476C90.9233 33.5168 91.5851 31.9653 92.9061 30.7695V30.7745ZM99.7703 34.0801C99.7703 32.6818 98.753 31.7405 97.4048 31.7405C95.9554 31.7405 94.8616 32.657 94.7357 34.0801H99.7703Z" fill="white"/>
<path d="M117.593 30.7745C118.687 31.9703 119.245 33.5218 119.245 35.3797C119.245 37.1091 118.736 38.6359 117.743 39.9577C116.726 41.3066 115.353 41.9663 113.6 41.9663C111.847 41.9663 110.472 41.4326 109.684 40.3381H109.632V47.4608H105.817V29.2971H109.326V30.9252H109.378C110.217 29.7813 111.716 28.9907 113.166 28.9907C114.995 28.9907 116.472 29.5763 117.59 30.772L117.593 30.7745ZM109.331 35.481C109.331 36.4223 109.61 37.161 110.17 37.744C110.704 38.3295 111.442 38.6087 112.383 38.6087C114.24 38.6087 115.435 37.3883 115.435 35.4785C115.435 33.5687 114.264 32.3507 112.358 32.3507C111.442 32.3507 110.706 32.6299 110.17 33.2154C109.61 33.801 109.331 34.5397 109.331 35.4785V35.481Z" fill="white"/>
<path d="M132.286 35.1993V41.6599H128.778V40.1083H128.726C127.938 41.3535 126.642 41.9662 124.81 41.9662C123.59 41.9662 122.548 41.6352 121.709 40.9483C120.844 40.2615 120.412 39.3449 120.412 38.1492C120.412 36.9534 120.896 35.9874 121.531 35.3772C122.141 34.7916 123.361 34.3593 124.2 34.1567C124.963 33.9788 126.691 33.8256 127.353 33.8009H128.778C128.778 32.452 127.659 31.5873 126.338 31.5873C125.143 31.5873 124.126 32.0715 123.237 33.0622L121.202 30.977C122.575 29.6553 124.38 28.9932 126.644 28.9932C130.788 28.9932 132.289 30.9276 132.289 35.1993H132.286ZM125.906 39.3721C127.457 39.3721 128.78 38.5321 128.78 37.0325V36.2443H127.637C125.272 36.2443 124.077 36.8299 124.077 38.0256C124.077 38.915 124.965 39.3746 125.906 39.3746V39.3721Z" fill="white"/>
<path d="M143.373 29.1216V32.6076C142.738 32.4297 142.202 32.3531 141.746 32.3531C139.178 32.3531 138.491 33.5736 138.491 36.3481V41.6648H134.677V29.302H138.491V31.2858H138.543C139.383 29.759 140.578 28.9956 142.128 28.9956C142.662 28.9956 143.094 29.0475 143.375 29.1241L143.373 29.1216Z" fill="white"/>
<path d="M146.235 30.7745C147.531 29.5787 149.21 28.9932 151.217 28.9932C153.607 28.9932 156.911 30.4434 156.911 35.6069V36.6742H148.064C148.37 38.1245 149.412 39.0658 150.938 39.0658C151.98 39.0658 152.896 38.5568 153.659 37.5636L156.328 39.5228C155.133 41.0496 153.074 41.9638 151.116 41.9638C149.158 41.9638 147.583 41.3782 146.259 40.1825C144.911 38.9867 144.252 37.4352 144.252 35.476C144.252 33.5168 144.914 31.9653 146.235 30.7695V30.7745ZM153.099 34.0801C153.099 32.6818 152.082 31.7405 150.733 31.7405C149.284 31.7405 148.19 32.657 148.064 34.0801H153.099Z" fill="white"/>
<path d="M168.035 22.4314H171.847V41.6625H168.338V40.0343H168.287C167.474 41.2301 165.921 41.9688 164.472 41.9688C162.642 41.9688 161.168 41.3586 160.074 40.1628C158.98 38.967 158.422 37.4402 158.422 35.5848C158.422 33.8307 158.931 32.2792 159.973 30.9549C160.99 29.6579 162.363 28.9957 164.067 28.9957C165.872 28.9957 167.195 29.5294 167.983 30.6239H168.035V22.4339V22.4314ZM165.289 38.6088C167.146 38.6088 168.341 37.3883 168.341 35.4786C168.341 33.5688 167.096 32.3508 165.264 32.3508C163.432 32.3508 162.24 33.5713 162.24 35.4786C162.24 37.3859 163.435 38.6088 165.291 38.6088H165.289Z" fill="white"/>
</svg>
