<svg width="30" height="33" viewBox="0 0 30 33" fill="none" xmlns="http://www.w3.org/2000/svg">
<path d="M0 10.2653V0.622315H2.05265V10.2653C2.05265 11.1178 2.37705 11.9353 2.95447 12.5381C3.53189 13.141 4.31504 13.4796 5.13164 13.4796C5.94823 13.4796 6.73139 13.141 7.30881 12.5381C7.88623 11.9353 8.21062 11.1178 8.21062 10.2653V3.83664C8.21062 3.55247 8.10249 3.27995 7.91002 3.07901C7.71754 2.87808 7.45649 2.7652 7.18429 2.7652C6.91209 2.7652 6.65104 2.87808 6.45857 3.07901C6.2661 3.27995 6.15796 3.55247 6.15796 3.83664V11.3367H4.10531V3.83664C4.10531 3.41453 4.18495 2.99655 4.33968 2.60657C4.49442 2.21659 4.72121 1.86225 5.00712 1.56377C5.29303 1.26529 5.63246 1.02852 6.00602 0.86699C6.37958 0.705455 6.77995 0.622314 7.18429 0.622314C7.58863 0.622314 7.98901 0.705455 8.36257 0.86699C8.73613 1.02852 9.07555 1.26529 9.36146 1.56377C9.64737 1.86225 9.87417 2.21659 10.0289 2.60657C10.1836 2.99655 10.2633 3.41453 10.2633 3.83664V10.2653C10.2633 11.6861 9.72262 13.0487 8.76025 14.0534C7.79788 15.0581 6.49263 15.6225 5.13164 15.6225C3.77064 15.6225 2.46539 15.0581 1.50302 14.0534C0.540653 13.0487 0 11.6861 0 10.2653Z" fill="#333333"/>
<path fill-rule="evenodd" clip-rule="evenodd" d="M26.7201 0.622314H12.5094V10.0961C12.5094 12.0504 11.7032 13.9246 10.2682 15.3064C8.83322 16.6883 6.88693 17.4646 4.85751 17.4646H1.57812V29.0437C1.57813 29.8812 1.92363 30.6845 2.53864 31.2767C3.15364 31.8689 3.98777 32.2016 4.85751 32.2016H26.7201C27.5899 32.2016 28.424 31.8689 29.039 31.2767C29.654 30.6845 29.9995 29.8812 29.9995 29.0437V3.78025C29.9995 2.94271 29.654 2.13948 29.039 1.54725C28.424 0.955024 27.5899 0.622314 26.7201 0.622314ZM23.4407 9.04346H14.6957V11.1488H23.4407V9.04346ZM23.4407 15.3593H14.6957V17.4646H23.4407V15.3593ZM8.1369 21.6752H23.4407V23.7805H8.1369V21.6752Z" fill="#333333"/>
</svg>
