<svg width="36" height="27" viewBox="0 0 36 27" fill="none" xmlns="http://www.w3.org/2000/svg">
<path d="M2.18842 24.3494C1.6984 24.3051 1.25293 24.3051 0.851998 24.2166C0.183785 24.0838 0.00559449 23.7741 0.00559449 23.1102C0.00559449 20.7205 0.00559449 18.3308 0.00559449 15.9853C-0.038953 15.4542 0.183785 15.1444 0.62926 15.0117C1.11928 14.8789 1.60931 14.8347 2.18842 14.7462C2.18842 14.4806 2.18842 14.1709 2.18842 13.9053C2.18842 13.0202 2.50026 12.6662 3.39121 12.6219C3.79213 12.6219 3.92578 12.4892 3.97032 12.0909C4.72763 7.44417 7.1332 3.85956 11.3207 1.73535C16.5327 -0.919917 21.6557 -0.521627 26.4223 2.88597C29.6743 5.1872 31.4562 8.41777 32.0353 12.3564C32.0353 12.4007 32.0353 12.4892 32.0798 12.5777C32.3916 12.6219 32.7035 12.6662 32.9708 12.7105C33.5499 12.8432 33.7726 13.153 33.7726 13.7283C33.7726 14.0381 33.7726 14.3921 33.7726 14.7019C33.7726 14.7462 33.8172 14.7462 33.8172 14.7904C34.3072 14.8789 34.7972 14.8789 35.2427 15.0117C35.8664 15.1887 36 15.41 36 16.0295C36 18.4193 36 20.809 36 23.1988C36 23.6856 35.7773 24.0396 35.3318 24.1281C34.8418 24.2609 34.3517 24.3051 33.7726 24.3936C33.7726 24.7034 33.7726 25.0574 33.7726 25.3672C33.7726 26.0753 33.4608 26.4736 32.7926 26.5178C31.8571 26.5621 30.877 26.5621 29.9415 26.5178C29.1842 26.4736 28.9169 26.1196 28.9169 25.323C28.9169 21.5171 28.9169 17.7112 28.9169 13.9496C28.9169 13.0202 29.0506 12.8432 29.9861 12.6219C30.0306 12.6219 30.1197 12.5777 30.2534 12.5334C29.7188 8.94882 28.026 6.02803 24.9968 4.03658C20.8984 1.33706 16.5773 1.07153 12.2116 3.28426C8.51417 5.23145 6.42044 8.37352 5.75223 12.4892C7.08865 12.976 7.08865 12.976 7.08865 14.3921C7.08865 18.0652 7.08865 21.7384 7.08865 25.4115C7.08865 26.0753 6.86591 26.4293 6.24225 26.4736C5.17311 26.5621 4.10397 26.6064 3.07937 26.4736C2.36661 26.3851 2.18842 26.031 2.23297 25.4115C2.18842 25.0574 2.18842 24.7477 2.18842 24.3494Z" fill="#333333"/>
<path d="M12.3945 18.5475C13.5701 18.5475 14.5648 18.5475 15.65 18.5475C15.65 16.4808 15.65 14.46 15.65 12.3933C17.3229 12.3933 18.9506 12.3933 20.6235 12.3933C20.6235 14.4141 20.6235 16.4349 20.6235 18.5016C21.6182 18.5016 22.6129 18.5016 23.5624 18.5016C23.5624 18.5476 23.6076 18.5935 23.6076 18.6394C21.7539 20.4765 19.9001 22.3136 18.0463 24.1966C16.1925 22.3136 14.3387 20.4765 12.3945 18.5475Z" fill="#333333"/>
<path d="M26.5581 25.967C26.5581 26.1486 26.5581 26.3302 26.5581 26.5572C20.8681 26.5572 15.1781 26.5572 9.44336 26.5572C9.44336 26.3756 9.44336 26.194 9.44336 25.967C15.1781 25.967 20.8681 25.967 26.5581 25.967Z" fill="#333333"/>
</svg>
