<svg width="21" height="22" viewBox="0 0 21 22" fill="none" xmlns="http://www.w3.org/2000/svg">
<path d="M0 16.1475C0 11.4995 0 6.8967 0 2.29387C0 2.24875 0.0452025 2.24875 0.0452025 2.20362C0.226013 1.30111 0.994455 0.669344 1.94371 0.71447C2.93816 0.759596 3.88742 0.71447 4.88187 0.71447C5.92153 0.71447 6.96118 0.71447 8.04605 0.71447C8.9501 0.71447 9.67334 1.3011 9.80894 2.15849C9.94455 2.92563 10.035 3.69277 10.1254 4.45991C10.261 5.4978 10.3966 6.49057 10.487 7.52846C10.6226 8.56636 10.7582 9.60425 10.8938 10.6421C11.0294 11.68 11.165 12.6728 11.2554 13.7107C11.391 14.8388 11.5266 15.967 11.6622 17.05C11.7074 17.3659 11.391 17.6818 11.0746 17.6818C10.6678 17.6818 10.261 17.6818 9.80894 17.6818C7.142 17.6818 4.52025 17.6818 1.8533 17.6818C1.35608 17.6818 0.949253 17.5464 0.54243 17.2305C0.271215 16.9598 0.090405 16.5536 0 16.1475ZM6.32835 9.875C6.32835 9.96525 6.37355 10.0104 6.37355 10.1006C6.46396 10.6421 6.59957 11.1837 6.68997 11.7703C6.78038 12.1313 7.09679 12.3569 7.41321 12.2667C7.77483 12.1764 7.95564 11.9057 7.91044 11.4995C7.50362 9.514 7.142 7.52846 6.73517 5.58805C6.64477 5.22705 6.46396 5.04655 6.10234 5.04655C5.69552 5.04655 5.3339 5.04655 4.92707 5.04655C4.56545 5.04655 4.33944 5.22705 4.29424 5.58805C3.88742 7.57359 3.48059 9.55912 3.11897 11.5447C3.11897 11.6349 3.11897 11.68 3.11897 11.7703C3.16418 12.0862 3.43539 12.2667 3.70661 12.2667C4.02302 12.2667 4.24904 12.041 4.33944 11.7252C4.47505 11.0934 4.56545 10.5068 4.70106 9.875C5.19829 9.875 5.74072 9.875 6.32835 9.875Z" fill="#053954"/>
<path d="M18.9978 21.2878C15.9327 21.2878 12.8225 21.2878 9.75732 21.2878C9.8024 21.2428 9.84747 21.1529 9.89255 21.1079C10.7039 20.2085 11.4702 19.3092 12.2815 18.4098C12.7323 17.8701 12.9126 17.2855 12.8225 16.611C12.7323 15.9365 12.6421 15.2169 12.552 14.5424C12.4168 13.5081 12.2815 12.5188 12.1914 11.4845C12.0562 10.4502 11.9209 9.46086 11.7857 8.42657C11.6505 7.39227 11.5153 6.35798 11.38 5.32368C11.335 5.0089 11.2899 4.73908 11.2899 4.4243C11.335 4.4243 11.38 4.4243 11.38 4.4243C13.8592 4.4243 16.3383 4.4243 18.7724 4.4243C19.0429 4.4243 19.3133 4.51423 19.5387 4.60417C20.2599 4.96393 20.5754 5.54853 20.5754 6.31301C20.5754 9.46086 20.5754 12.6087 20.5754 15.8015C20.5754 17.0157 20.5754 18.2299 20.5754 19.4441C20.5754 20.0736 20.35 20.6133 19.8091 20.973C19.5838 21.1079 19.2682 21.1979 18.9978 21.2878ZM15.4819 13.688C15.3917 13.7779 15.3016 13.8679 15.2114 13.9128C14.8508 14.1826 14.5353 14.4974 14.1747 14.7672C13.9944 14.9022 13.8592 15.127 13.9493 15.3518C14.0395 15.8015 14.5353 15.9814 14.8959 15.7116C15.3016 15.3968 15.7524 15.0371 16.158 14.6773C16.2933 14.5424 16.3834 14.5424 16.5186 14.6773C16.9243 15.0371 17.3751 15.3518 17.8258 15.7116C18.2315 15.9814 18.7273 15.8015 18.8175 15.3518C18.8626 15.082 18.7273 14.9022 18.547 14.7672C18.0963 14.4075 17.6455 14.0927 17.2398 13.733C17.2849 13.688 17.2849 13.688 17.2849 13.643C17.8709 12.8785 18.3667 12.0691 18.6823 11.1697C18.6823 11.1247 18.8175 11.0798 18.8626 11.0798C19.2232 11.0348 19.4936 10.8099 19.4936 10.4502C19.4936 10.1354 19.2232 9.86559 18.8626 9.86559C18.6372 9.86559 18.3667 9.86559 18.1413 9.86559C17.7807 9.86559 17.4201 9.86559 17.0595 9.86559C17.0595 9.68571 17.0595 9.50583 17.0595 9.37092C17.0595 8.9662 16.7891 8.65141 16.4285 8.65141C16.0679 8.65141 15.8425 8.92123 15.8425 9.37092C15.8425 9.5508 15.8425 9.68571 15.8425 9.86559C15.7524 9.86559 15.6622 9.86559 15.6171 9.86559C15.1213 9.86559 14.5804 9.86559 14.0846 9.86559C13.724 9.86559 13.4986 10.0904 13.4535 10.4502C13.4084 10.72 13.6338 11.0348 13.9493 11.0798C14.2198 11.0798 14.2649 11.2596 14.355 11.4395C14.355 11.4845 14.4001 11.5295 14.4001 11.5744C14.5353 12.2939 14.941 13.0134 15.4819 13.688Z" fill="#053954"/>
<path d="M6.3157 9.84396C5.71984 9.84396 5.16982 9.84396 4.57396 9.84396C4.43645 10.4837 4.34478 11.0777 4.20728 11.7175C4.11561 12.083 3.88643 12.2658 3.56558 12.2658C3.29057 12.2658 3.01556 12.0373 2.96973 11.7632C2.96973 11.6718 2.96973 11.6261 2.96973 11.5347C3.38224 9.52409 3.79476 7.5135 4.16144 5.50292C4.25311 5.13736 4.43645 4.95457 4.80314 4.95457C5.21565 4.95457 5.58234 4.95457 5.99485 4.95457C6.36154 4.95457 6.59071 5.18305 6.63655 5.50292C7.04906 7.5135 7.41575 9.52409 7.82826 11.489C7.91993 11.8545 7.69076 12.1744 7.32408 12.2658C7.00323 12.3115 6.68238 12.1287 6.59071 11.7632C6.45321 11.2148 6.36154 10.6665 6.26986 10.0724C6.36154 9.98104 6.3157 9.93535 6.3157 9.84396ZM5.30732 6.14265C5.12398 6.96516 4.98648 7.78767 4.80314 8.56449C5.21565 8.56449 5.62817 8.56449 6.04069 8.56449C5.85735 7.74198 5.71984 6.91947 5.5365 6.14265C5.49067 6.14265 5.44483 6.14265 5.39899 6.14265C5.39899 6.14265 5.35316 6.14265 5.30732 6.14265Z" fill="white"/>
<path d="M15.468 13.6458C14.9266 12.9708 14.5205 12.2507 14.2047 11.4857C14.2047 11.4407 14.1596 11.3957 14.1596 11.3507C14.1145 11.1257 14.0694 10.9907 13.7536 10.9907C13.4378 10.9907 13.2573 10.6757 13.2573 10.3607C13.3024 10.0457 13.528 9.82066 13.8889 9.77566C14.3852 9.77566 14.9266 9.77566 15.4228 9.77566C15.5131 9.77566 15.5582 9.77566 15.6484 9.77566C15.6484 9.59566 15.6484 9.46065 15.6484 9.28065C15.6484 8.87563 15.874 8.56062 16.2349 8.56062C16.5958 8.56062 16.8214 8.83063 16.8665 9.28065C16.8665 9.46065 16.8665 9.59566 16.8665 9.77566C17.2274 9.77566 17.5884 9.77566 17.9493 9.77566C18.1749 9.77566 18.4455 9.77566 18.6711 9.77566C19.032 9.77566 19.3027 10.0457 19.3027 10.3607C19.3027 10.6757 19.032 10.9457 18.6711 10.9907C18.626 10.9907 18.4907 11.0357 18.4907 11.0807C18.1749 11.9807 17.7237 12.7908 17.0921 13.5558C17.0921 13.5558 17.0921 13.6008 17.047 13.6458C17.4981 14.0058 17.9493 14.3208 18.3553 14.6808C18.5358 14.8158 18.6711 15.0408 18.626 15.2658C18.5358 15.7158 18.0395 15.9409 17.6335 15.6258C17.1823 15.3108 16.7763 14.9508 16.3251 14.5908C16.1898 14.4558 16.0996 14.4558 15.9642 14.5908C15.5582 14.9508 15.1522 15.2658 14.701 15.6258C14.3401 15.8959 13.8438 15.7158 13.7536 15.2658C13.7085 14.9958 13.7987 14.8158 13.9792 14.6808C14.3401 14.4108 14.6559 14.0958 15.0168 13.8258C15.2875 13.8258 15.3777 13.7358 15.468 13.6458ZM15.3326 10.9907C15.5582 11.6207 15.874 12.2057 16.3251 12.7458C16.7763 12.2057 17.0921 11.6657 17.3628 10.9907C16.6409 10.9907 16.0093 10.9907 15.3326 10.9907Z" fill="white"/>
<path d="M10.2879 18.8484C9.73216 19.4548 9.17647 20.0612 8.62077 20.6676C8.52816 20.7609 8.43554 20.8541 8.38923 20.9474C8.25031 21.134 8.15769 21.0874 7.97246 20.9941C7.46308 20.6209 7.18523 20.1545 7.09262 19.5481C7.04631 19.3149 7.04631 19.0817 7 18.8484C8.11139 18.8484 9.17647 18.8484 10.2879 18.8484Z" fill="#053954"/>
<path d="M5.311 6.22733C5.35421 6.22733 5.39742 6.22733 5.44063 6.22733C5.48384 6.22733 5.48384 6.22733 5.57026 6.22733C5.7431 7.01978 5.87273 7.7682 6.04556 8.56065C5.65668 8.56065 5.26779 8.56065 4.87891 8.56065C5.00853 7.81223 5.13816 7.01978 5.311 6.22733Z" fill="#053954"/>
<path d="M15.3784 11C16.0501 11 16.7218 11 17.3936 11C17.1696 11.6472 16.8114 12.2482 16.3636 12.803C15.9158 12.2482 15.6023 11.6935 15.3784 11Z" fill="#053954"/>
</svg>
