<svg width="21" height="26" viewBox="0 0 21 26" fill="none" xmlns="http://www.w3.org/2000/svg">
<path d="M10.5 0L0 4.72727V11.8182C0 18.3773 4.48 24.5109 10.5 26C16.52 24.5109 21 18.3773 21 11.8182V4.72727L10.5 0ZM10.5 7.09091C12.1333 7.09091 13.7667 8.39091 13.7667 10.0455V11.8182C14.4667 11.8182 15.1667 12.5273 15.1667 13.3545V17.4909C15.1667 18.2 14.4667 18.9091 13.65 18.9091H7.23333C6.53333 18.9091 5.83333 18.2 5.83333 17.3727V13.2364C5.83333 12.5273 6.53333 11.8182 7.23333 11.8182V10.0455C7.23333 8.39091 8.86667 7.09091 10.5 7.09091ZM10.5 8.50909C9.56667 8.50909 8.75 9.1 8.75 10.0455V11.8182H12.25V10.0455C12.25 9.1 11.4333 8.50909 10.5 8.50909Z" fill="#333333"/>
</svg>
