<svg width="29" height="25" viewBox="0 0 29 25" fill="none" xmlns="http://www.w3.org/2000/svg">
<path fill-rule="evenodd" clip-rule="evenodd" d="M14.5001 25.0001L12.9885 23.6733C13.2178 23.1615 13.4487 22.6505 13.6837 22.1416C13.7758 21.932 13.9579 21.772 14.1369 21.6146C14.2099 21.5505 14.2825 21.4867 14.3482 21.4202C14.421 21.5053 14.5055 21.5844 14.5902 21.6638L14.5903 21.6638C14.7505 21.814 14.9117 21.965 14.9965 22.158C15.2626 22.7296 15.5248 23.3012 15.7844 23.8728L14.5001 25.0001ZM0.369629 7.49321C0.369629 12.1393 4.3008 16.0274 10.4374 21.4364L10.5881 20.5513C10.6368 20.2562 10.6872 19.9611 10.7376 19.6659C10.8384 19.0757 10.9393 18.4855 11.0257 17.8952C11.204 16.6 10.7664 15.5507 9.74537 14.7309C9 14.1244 8.25463 13.5138 7.50926 12.9032L7.50874 12.9028C6.76323 12.292 6.01771 11.6813 5.2722 11.0747C4.86702 10.7468 4.47805 10.3861 4.89943 9.84503C5.2722 9.35317 5.70979 9.5991 6.11497 9.86143C6.57172 10.1442 7.02847 10.429 7.48568 10.714C8.91041 11.6022 10.3397 12.4932 11.7875 13.3373C13.473 14.321 15.2396 14.321 16.9251 13.3373C18.5305 12.4014 20.1129 11.4194 21.6917 10.4396L21.694 10.4382C21.9953 10.2512 22.2965 10.0643 22.5976 9.87782C23.019 9.61549 23.4566 9.38596 23.8132 9.86143C24.2183 10.4025 23.8294 10.7632 23.4242 11.0911C22.6788 11.6976 21.9374 12.3082 21.1961 12.9189L21.1956 12.9193C20.4542 13.53 19.7127 14.1407 18.9672 14.7473C17.8814 15.6326 17.4762 16.7475 17.7193 18.1411C17.9247 19.3087 18.1212 20.4809 18.3153 21.6542C24.5935 16.1312 28.6306 12.2015 28.6306 7.49321C28.6306 3.28339 25.211 0 20.8588 0C18.4001 0 16.0403 1.10354 14.5001 2.83379C12.9599 1.10354 10.6001 0 8.14139 0C3.7892 0 0.369629 3.28339 0.369629 7.49321ZM14.348 11.1731C15.9201 11.1731 17.1843 9.91067 17.1843 8.32031C17.1843 6.72995 15.9201 5.43471 14.3642 5.43471C12.8245 5.43471 11.528 6.72995 11.5118 8.30392C11.4956 9.84509 12.8083 11.1731 14.348 11.1731Z" fill="white"/>
</svg>
