<svg width="24" height="28" viewBox="0 0 24 28" fill="none" xmlns="http://www.w3.org/2000/svg">
<path d="M20.2105 13.1031C19.5789 13.2674 18.9474 13.3684 18.3158 13.3684C16.4743 13.3651 14.7091 12.632 13.4069 11.3299C12.1048 10.0277 11.3718 8.26257 11.3684 6.42103C11.3684 4.56419 12.1011 2.88419 13.2632 1.63367C13.0339 1.35266 12.7449 1.12634 12.4171 0.971194C12.0893 0.816046 11.7311 0.735977 11.3684 0.736823C9.97895 0.736823 8.8421 1.87367 8.8421 3.26314V3.62945C5.09053 4.74103 2.52632 8.18946 2.52632 12.1052V19.6842L0 22.2105V23.4737H22.7368V22.2105L20.2105 19.6842V13.1031ZM11.3684 27.2631C12.7705 27.2631 13.8947 26.1389 13.8947 24.7368H8.8421C8.8421 25.4068 9.10827 26.0494 9.58205 26.5232C10.0558 26.997 10.6984 27.2631 11.3684 27.2631Z" fill="#053954"/>
<ellipse cx="18.9474" cy="6.42104" rx="5.05263" ry="5.05263" fill="#C40000"/>
</svg>
