<svg width="25" height="25" viewBox="0 0 25 25" fill="none" xmlns="http://www.w3.org/2000/svg">
<path d="M12.5089 8.84564C14.1269 8.84564 15.7449 8.84564 17.3629 8.84564C17.9453 8.84564 18.1395 9.0398 18.2042 9.62227C18.2042 11.0461 18.2689 12.4052 18.2689 13.829C18.2689 14.4762 18.2042 15.0587 18.1395 15.7058C18.1395 15.9647 17.9453 16.1589 17.6865 16.2236C17.557 16.2236 17.4923 16.2236 17.3629 16.2236C14.1916 16.2236 11.0204 16.2236 7.78446 16.2236C7.20199 16.2236 7.00784 16.0942 6.94312 15.5117C6.8784 14.0879 6.81368 12.6641 6.74896 11.2402C6.74896 10.7225 6.81368 10.2047 6.81368 9.68699C6.81368 9.0398 7.00784 8.91036 7.65503 8.91036C9.273 8.84564 10.891 8.84564 12.5089 8.84564Z" fill="#333333"/>
<path d="M12.509 7.03348C11.0204 7.03348 9.46717 7.03348 7.97864 7.03348C7.46088 7.03348 7.20201 6.7746 7.33145 6.19213C7.71976 4.31529 8.30223 2.50316 9.14357 0.820467C9.27301 0.561592 9.46717 0.367435 9.79076 0.302716C11.6029 -0.085597 13.4797 -0.0855969 15.3566 0.367435C15.6155 0.432154 15.7449 0.561592 15.8743 0.755748C16.7804 2.50316 17.3629 4.44472 17.7512 6.38629C17.8159 6.7746 17.557 7.03348 17.104 7.03348C15.8096 7.03348 14.5152 7.03348 13.2856 7.03348C13.0267 7.03348 12.7678 7.03348 12.509 7.03348Z" fill="#333333"/>
<path d="M12.5741 17.9709C13.9979 17.9709 15.4865 17.9709 16.9103 17.9709C17.428 17.9709 17.6869 18.2945 17.5575 18.8123C17.1044 20.6244 16.522 22.3718 15.6159 23.9898C15.2923 24.5723 14.904 24.8311 14.3215 24.8959C12.9624 25.0253 11.6033 25.0253 10.1795 24.7664C9.92065 24.7017 9.72649 24.5723 9.59705 24.3781C8.75571 23.019 8.17324 21.5952 7.78492 20.042C7.65549 19.5889 7.52605 19.2006 7.46133 18.7476C7.33189 18.2298 7.59077 17.9709 8.10852 17.9709C9.59705 17.9709 11.0856 17.9709 12.5741 17.9709Z" fill="#333333"/>
<path d="M2.7365 16.1589C2.21875 16.1589 1.701 16.1589 1.11853 16.1589C0.665499 16.1589 0.536062 16.0294 0.406624 15.5764C-0.111127 13.5054 -0.111127 11.4344 0.406624 9.36339C0.471343 8.97508 0.665499 8.84564 1.05381 8.84564C2.15403 8.84564 3.25425 8.84564 4.35448 8.84564C4.80751 8.84564 5.06638 9.10452 5.00166 9.55755C4.87223 11.3697 4.87223 13.1818 5.00166 14.9939C5.00166 15.1881 5.06638 15.3175 5.06638 15.5117C5.06638 15.9647 4.87223 16.1589 4.41919 16.1589C3.96616 16.1589 3.51313 16.1589 3.0601 16.1589C2.99538 16.1589 2.86594 16.1589 2.7365 16.1589Z" fill="#333333"/>
<path d="M20.1458 12.2757C20.0811 11.305 20.0811 10.4636 20.0164 9.62227C20.0164 9.10452 20.2106 8.84564 20.7283 8.84564C21.7638 8.84564 22.864 8.84564 23.8995 8.84564C24.3526 8.84564 24.5467 8.97508 24.6114 9.42811C25.1292 11.4991 25.1292 13.5701 24.6114 15.5764C24.482 16.0294 24.3526 16.1589 23.8348 16.1589C22.7993 16.1589 21.7638 16.1589 20.6636 16.1589C20.0811 16.1589 19.887 15.9 19.887 15.3175C20.0164 14.282 20.0811 13.1818 20.1458 12.2757Z" fill="#333333"/>
<path d="M3.64263 17.9709C4.09566 17.9709 4.48397 17.9709 4.93701 17.9709C5.2606 17.9709 5.45476 18.1004 5.51948 18.424C5.84307 19.7184 6.16667 21.0127 6.6197 22.3071C6.68442 22.566 6.6197 22.7601 6.42554 22.9543C6.23138 23.1485 5.97251 23.0837 5.77835 22.9543C4.16038 21.9188 2.80128 20.5597 1.8305 18.877C1.57163 18.424 1.8305 17.9709 2.34825 17.9709C2.73657 17.9709 3.1896 17.9709 3.64263 17.9709Z" fill="#333333"/>
<path d="M21.4401 17.9709C21.8931 17.9709 22.2815 17.9709 22.7345 17.9709C23.2522 17.9709 23.5111 18.424 23.2522 18.877C22.2815 20.5597 20.9224 21.9188 19.3044 23.019C19.0455 23.1485 18.8514 23.2132 18.5925 23.019C18.3336 22.8249 18.3336 22.6307 18.3983 22.3071C18.7866 21.0127 19.1102 19.7831 19.4985 18.4887C19.628 18.1004 19.7574 17.9709 20.1457 17.9709C20.534 17.9709 20.9871 17.9709 21.4401 17.9709Z" fill="#333333"/>
<path d="M21.505 7.0335C21.1167 7.0335 20.6637 7.0335 20.2754 7.0335C19.9518 7.0335 19.7576 6.83935 19.6282 6.51575C19.3693 5.35081 19.0457 4.12115 18.7221 2.95621C18.6574 2.63262 18.6574 2.43846 18.9163 2.24431C19.1104 2.05015 19.3693 2.11487 19.6929 2.30903C21.1167 3.34453 22.3464 4.57419 23.2524 6.12744C23.576 6.64519 23.3172 7.0335 22.7347 7.0335C22.2816 7.0335 21.8933 7.0335 21.505 7.0335Z" fill="#333333"/>
<path d="M3.57791 7.03349C3.1896 7.03349 2.73657 7.03349 2.34825 7.03349C1.8305 7.03349 1.57163 6.58046 1.8305 6.12743C2.73657 4.57417 3.96622 3.2798 5.45476 2.2443C5.64891 2.11486 5.90779 2.11486 6.16667 2.2443C6.36082 2.37373 6.36082 2.63261 6.2961 2.9562C6.03723 3.92699 5.77835 4.83305 5.51948 5.80383C5.45476 5.99799 5.45476 6.25687 5.39004 6.51574C5.32532 6.90405 5.13116 7.09821 4.74285 7.09821C4.35454 7.03349 3.96622 7.03349 3.57791 7.03349Z" fill="#333333"/>
</svg>
