<svg width="29" height="25" viewBox="0 0 29 25" fill="none" xmlns="http://www.w3.org/2000/svg">
<path d="M28.5532 12.4756C28.5532 13.3545 27.8208 14.043 26.9907 14.043H25.4282L25.4624 21.8604C25.4624 21.9971 25.4526 22.124 25.438 22.2559V23.0469C25.438 24.126 24.564 25 23.4849 25H22.7036C22.6499 25 22.5962 24.9561 22.5425 24.9951C22.4741 24.9561 22.4058 25 22.3374 25H19.5786C18.4995 25 17.6255 24.126 17.6255 23.0469V18.75C17.6255 17.8857 16.9272 17.1875 16.063 17.1875H12.938C12.0737 17.1875 11.3755 17.8857 11.3755 18.75V23.0469C11.3755 24.126 10.5015 25 9.42236 25H6.69287C6.61963 25 6.54639 24.9951 6.47314 24.9902C6.41455 24.9951 6.35596 25 6.29736 25H5.51611C4.4375 25 3.56299 24.126 3.56299 23.0469V17.5781C3.56299 17.5342 3.56445 17.4854 3.56738 17.4414V14.043H2.00293C1.12256 14.043 0.437988 13.3545 0.437988 12.4756C0.437988 12.0361 0.584668 11.6455 0.926758 11.3037L13.4458 0.391406C13.7876 0.0489258 14.1782 0 14.52 0C14.8618 0 15.2524 0.0978515 15.5503 0.34248L28.0161 11.3037C28.4067 11.6455 28.6069 12.0361 28.5532 12.4756Z" fill="white"/>
</svg>
