<svg width="14" height="14" viewBox="0 0 14 14" fill="none" xmlns="http://www.w3.org/2000/svg">
<path d="M8.75 14V9.27413C9.14986 9.04408 9.48201 8.71269 9.71297 8.31336C9.94393 7.91403 10.0655 7.46087 10.0655 6.99956C10.0655 6.53825 9.94393 6.08509 9.71297 5.68576C9.48201 5.28643 9.14986 4.95504 8.75 4.725V0L4.08362 3.5H0V10.5H4.08362L8.75 14Z" fill="#333333"/>
<path d="M11.8999 2.7999L11.2008 2.2749L10.1499 3.67403L10.8499 4.19903C11.1153 4.39855 11.351 4.63484 11.5499 4.90078C11.99 5.48528 12.2499 6.21065 12.2499 6.9999C12.2499 7.78915 11.99 8.51365 11.5499 9.0999C11.3509 9.36522 11.1152 9.60091 10.8499 9.7999L10.1499 10.3258L11.2008 11.7258L11.9008 11.1999C12.2981 10.9013 12.6511 10.5478 12.949 10.1499C13.632 9.24185 14.0009 8.13615 13.9999 6.9999C13.9999 5.81865 13.6088 4.72665 12.9499 3.8499C12.6514 3.45192 12.2979 3.09839 11.8999 2.7999Z" fill="#333333"/>
</svg>
