<svg width="20" height="20" viewBox="0 0 20 20" fill="none" xmlns="http://www.w3.org/2000/svg">
<path d="M9.99289 7.07643C11.2873 7.07643 12.5817 7.07643 13.8761 7.07643C14.3421 7.07643 14.4975 7.23176 14.5492 7.69775C14.5492 8.83684 14.601 9.92415 14.601 11.0632C14.601 11.581 14.5492 12.047 14.4975 12.5648C14.4975 12.7719 14.3421 12.9272 14.135 12.979C14.0315 12.979 13.9797 12.979 13.8761 12.979C11.3391 12.979 8.80202 12.979 6.21319 12.979C5.7472 12.979 5.59187 12.8754 5.5401 12.4094C5.48832 11.2703 5.43654 10.1313 5.38477 8.99217C5.38477 8.57795 5.43654 8.16374 5.43654 7.74953C5.43654 7.23176 5.59187 7.12821 6.10964 7.12821C7.40405 7.07643 8.69847 7.07643 9.99289 7.07643Z" fill="#053954"/>
<path d="M9.99274 5.62664C8.80188 5.62664 7.55924 5.62664 6.36837 5.62664C5.95416 5.62664 5.74705 5.41954 5.85061 4.95355C6.16127 3.45202 6.62726 2.00228 7.30035 0.656086C7.40391 0.44898 7.55924 0.29365 7.81812 0.241873C9.26786 -0.0687868 10.7694 -0.0687867 12.2709 0.29365C12.478 0.345426 12.5816 0.44898 12.6851 0.604309C13.41 2.00228 13.876 3.55558 14.1866 5.10888C14.2384 5.41954 14.0313 5.62664 13.6689 5.62664C12.6333 5.62664 11.5978 5.62664 10.6141 5.62664C10.407 5.62664 10.1998 5.62664 9.99274 5.62664Z" fill="#053954"/>
<path d="M10.0445 14.3769C11.1836 14.3769 12.3744 14.3769 13.5135 14.3769C13.9277 14.3769 14.1348 14.6358 14.0313 15.05C13.6688 16.4997 13.2029 17.8977 12.478 19.1921C12.2191 19.6581 11.9084 19.8652 11.4424 19.917C10.3551 20.0206 9.26783 20.0206 8.12874 19.8135C7.92164 19.7617 7.76631 19.6581 7.66275 19.5028C6.98966 18.4155 6.52367 17.2764 6.21301 16.0338C6.10945 15.6713 6.0059 15.3607 5.95412 14.9982C5.85057 14.584 6.05768 14.3769 6.47189 14.3769C7.66275 14.3769 8.85361 14.3769 10.0445 14.3769Z" fill="#053954"/>
<path d="M2.17462 12.9272C1.76041 12.9272 1.34619 12.9272 0.880203 12.9272C0.517766 12.9272 0.414213 12.8236 0.31066 12.4612C-0.103553 10.8043 -0.103553 9.1475 0.31066 7.49064C0.362436 7.17998 0.517766 7.07643 0.828426 7.07643C1.70863 7.07643 2.58883 7.07643 3.46903 7.07643C3.83147 7.07643 4.03858 7.28354 3.9868 7.64597C3.88325 9.09572 3.88325 10.5455 3.9868 11.9952C3.9868 12.1505 4.03858 12.2541 4.03858 12.4094C4.03858 12.7719 3.88325 12.9272 3.52081 12.9272C3.15837 12.9272 2.79594 12.9272 2.4335 12.9272C2.38173 12.9272 2.27817 12.9272 2.17462 12.9272Z" fill="#053954"/>
<path d="M16.1026 9.82059C16.0508 9.04394 16.0508 8.37085 15.9991 7.69775C15.9991 7.28354 16.1544 7.07643 16.5686 7.07643C17.397 7.07643 18.2772 7.07643 19.1057 7.07643C19.4681 7.07643 19.6234 7.17998 19.6752 7.54242C20.0894 9.19927 20.0894 10.8561 19.6752 12.4612C19.5716 12.8236 19.4681 12.9272 19.0539 12.9272C18.2255 12.9272 17.397 12.9272 16.5168 12.9272C16.0508 12.9272 15.8955 12.7201 15.8955 12.2541C15.9991 11.4257 16.0508 10.5455 16.1026 9.82059Z" fill="#053954"/>
<path d="M2.89916 14.3769C3.26159 14.3769 3.57225 14.3769 3.93469 14.3769C4.19357 14.3769 4.3489 14.4805 4.40068 14.7393C4.65956 15.7749 4.91845 16.8104 5.28088 17.8459C5.33266 18.053 5.28088 18.2084 5.12555 18.3637C4.97022 18.519 4.76312 18.4673 4.60779 18.3637C3.31337 17.5353 2.22606 16.448 1.44941 15.1018C1.24231 14.7393 1.44941 14.3769 1.86363 14.3769C2.17429 14.3769 2.53672 14.3769 2.89916 14.3769Z" fill="#053954"/>
<path d="M17.138 14.3769C17.5005 14.3769 17.8111 14.3769 18.1736 14.3769C18.5878 14.3769 18.7949 14.7393 18.5878 15.1018C17.8111 16.448 16.7238 17.5353 15.4294 18.4155C15.2223 18.519 15.067 18.5708 14.8599 18.4155C14.6528 18.2602 14.6528 18.1048 14.7045 17.8459C15.0152 16.8104 15.2741 15.8266 15.5847 14.7911C15.6883 14.4805 15.7919 14.3769 16.1025 14.3769C16.4132 14.3769 16.7756 14.3769 17.138 14.3769Z" fill="#053954"/>
<path d="M17.1897 5.62666C16.8791 5.62666 16.5166 5.62666 16.206 5.62666C15.9471 5.62666 15.7918 5.47133 15.6882 5.21245C15.4811 4.28047 15.2222 3.29671 14.9633 2.36474C14.9116 2.10585 14.9116 1.95052 15.1187 1.79519C15.274 1.63986 15.4811 1.69164 15.74 1.84697C16.8791 2.67539 17.8628 3.65915 18.5877 4.90179C18.8466 5.316 18.6395 5.62666 18.1735 5.62666C17.811 5.62666 17.5004 5.62666 17.1897 5.62666Z" fill="#053954"/>
<path d="M2.84738 5.62668C2.53672 5.62668 2.17429 5.62668 1.86363 5.62668C1.44941 5.62668 1.24231 5.26424 1.44941 4.90181C2.17429 3.65917 3.15804 2.62364 4.3489 1.79521C4.50423 1.69166 4.71134 1.69166 4.91845 1.79521C5.07378 1.89876 5.07378 2.10587 5.022 2.36475C4.81489 3.1414 4.60779 3.86627 4.40068 4.64292C4.3489 4.79825 4.3489 5.00536 4.29713 5.21247C4.24535 5.52313 4.09002 5.67846 3.77936 5.67846C3.4687 5.62668 3.15804 5.62668 2.84738 5.62668Z" fill="#053954"/>
</svg>
