<svg width="24" height="24" viewBox="0 0 24 24" fill="none" xmlns="http://www.w3.org/2000/svg">
<path d="M0 18.0042C0 12.5827 0 7.21379 0 1.84491C0 1.79228 0.0527256 1.79228 0.0527256 1.73964C0.263628 0.686919 1.15996 -0.0499865 2.2672 0.00264962C3.42716 0.0552857 4.5344 0.00264962 5.69436 0.00264962C6.90705 0.00264962 8.11974 0.00264962 9.38515 0.00264962C10.4397 0.00264962 11.2833 0.686919 11.4414 1.687C11.5996 2.58182 11.7051 3.47663 11.8105 4.37144C11.9687 5.58207 12.1269 6.74007 12.2323 7.9507C12.3905 9.16133 12.5487 10.372 12.7069 11.5826C12.865 12.7932 13.0232 13.9512 13.1287 15.1618C13.2868 16.4777 13.445 17.7936 13.6032 19.0569C13.6559 19.4254 13.2868 19.7938 12.9178 19.7938C12.4432 19.7938 11.9687 19.7938 11.4414 19.7938C8.33064 19.7938 5.27256 19.7938 2.16175 19.7938C1.58177 19.7938 1.10724 19.6359 0.632707 19.2675C0.316353 18.9516 0.105451 18.4779 0 18.0042ZM7.38158 10.6878C7.38158 10.793 7.43431 10.8457 7.43431 10.951C7.53976 11.5826 7.69793 12.2142 7.80338 12.8985C7.90884 13.3196 8.27791 13.5828 8.64699 13.4775C9.0688 13.3722 9.2797 13.0564 9.22698 12.5827C8.75245 10.2667 8.33064 7.9507 7.85611 5.68735C7.75066 5.26626 7.53976 5.05571 7.11795 5.05571C6.64342 5.05571 6.22162 5.05571 5.74709 5.05571C5.32528 5.05571 5.06166 5.26626 5.00893 5.68735C4.5344 8.00333 4.05987 10.3193 3.63806 12.6353C3.63806 12.7406 3.63806 12.7932 3.63806 12.8985C3.69079 13.2669 4.00714 13.4775 4.3235 13.4775C4.69258 13.4775 4.9562 13.2143 5.06166 12.8459C5.21983 12.1089 5.32528 11.4247 5.48346 10.6878C6.06344 10.6878 6.69615 10.6878 7.38158 10.6878Z" fill="#333333"/>
<path d="M22.1599 24C18.5847 24 14.9568 24 11.3816 24C11.4342 23.9475 11.4867 23.8426 11.5393 23.7902C12.4857 22.7411 13.3795 21.692 14.3259 20.643C14.8517 20.0135 15.062 19.3316 14.9568 18.5448C14.8517 17.758 14.7465 16.9188 14.6414 16.132C14.4837 14.9255 14.3259 13.7715 14.2208 12.5651C14.063 11.3587 13.9053 10.2047 13.7476 8.99827C13.5898 7.79183 13.4321 6.5854 13.2744 5.37897C13.2218 5.01179 13.1692 4.69707 13.1692 4.3299C13.2218 4.3299 13.2744 4.3299 13.2744 4.3299C16.1661 4.3299 19.0579 4.3299 21.8971 4.3299C22.2125 4.3299 22.528 4.4348 22.7909 4.53971C23.6321 4.95934 24.0001 5.64124 24.0001 6.53295C24.0001 10.2047 24.0001 13.8765 24.0001 17.6007C24.0001 19.0169 24.0001 20.4332 24.0001 21.8494C24.0001 22.5838 23.7373 23.2132 23.1063 23.6328C22.8434 23.7902 22.4754 23.8951 22.1599 24ZM18.0589 15.1353C17.9538 15.2402 17.8486 15.3452 17.7434 15.3976C17.3228 15.7123 16.9548 16.0795 16.5342 16.3942C16.3239 16.5516 16.1661 16.8139 16.2713 17.0761C16.3764 17.6007 16.9548 17.8105 17.3754 17.4958C17.8486 17.1286 18.3744 16.7089 18.8476 16.2893C19.0053 16.132 19.1105 16.132 19.2682 16.2893C19.7414 16.7089 20.2672 17.0761 20.7929 17.4958C21.2661 17.8105 21.8445 17.6007 21.9496 17.0761C22.0022 16.7614 21.8445 16.5516 21.6342 16.3942C21.1084 15.9746 20.5826 15.6074 20.1094 15.1878C20.162 15.1353 20.162 15.1353 20.162 15.0829C20.8455 14.1912 21.4239 13.247 21.7919 12.1979C21.7919 12.1455 21.9496 12.093 22.0022 12.093C22.4228 12.0406 22.7383 11.7783 22.7383 11.3587C22.7383 10.9915 22.4228 10.6768 22.0022 10.6768C21.7393 10.6768 21.4239 10.6768 21.161 10.6768C20.7404 10.6768 20.3197 10.6768 19.8991 10.6768C19.8991 10.467 19.8991 10.2572 19.8991 10.0998C19.8991 9.62771 19.5837 9.26053 19.163 9.26053C18.7424 9.26053 18.4795 9.57526 18.4795 10.0998C18.4795 10.3096 18.4795 10.467 18.4795 10.6768C18.3744 10.6768 18.2692 10.6768 18.2166 10.6768C17.6383 10.6768 17.0074 10.6768 16.429 10.6768C16.0084 10.6768 15.7455 10.9391 15.6929 11.3587C15.6404 11.6734 15.9032 12.0406 16.2713 12.093C16.5867 12.093 16.6393 12.3028 16.7445 12.5127C16.7445 12.5651 16.7971 12.6176 16.7971 12.67C16.9548 13.5093 17.428 14.3485 18.0589 15.1353Z" fill="#333333"/>
<path d="M7.36677 10.6516C6.67175 10.6516 6.03018 10.6516 5.33516 10.6516C5.17476 11.3978 5.06784 12.0907 4.90745 12.8369C4.80052 13.2633 4.5332 13.4765 4.15896 13.4765C3.83817 13.4765 3.51739 13.21 3.46393 12.8902C3.46393 12.7836 3.46393 12.7303 3.46393 12.6237C3.9451 10.2785 4.42627 7.9333 4.85398 5.58809C4.96091 5.16169 5.17476 4.94849 5.60247 4.94849C6.08365 4.94849 6.51136 4.94849 6.99253 4.94849C7.42024 4.94849 7.68755 5.21499 7.74102 5.58809C8.22219 7.9333 8.6499 10.2785 9.13107 12.5704C9.238 12.9968 8.97068 13.3699 8.54297 13.4765C8.16873 13.5298 7.79448 13.3166 7.68755 12.8902C7.52716 12.2506 7.42024 11.611 7.31331 10.9181C7.42024 10.8115 7.36677 10.7582 7.36677 10.6516ZM6.19057 6.33429C5.97672 7.2937 5.81633 8.2531 5.60247 9.1592C6.08365 9.1592 6.56482 9.1592 7.04599 9.1592C6.83214 8.1998 6.67175 7.2404 6.45789 6.33429C6.40443 6.33429 6.35096 6.33429 6.2975 6.33429C6.2975 6.33429 6.24404 6.33429 6.19057 6.33429Z" fill="white"/>
<path d="M18.0425 15.0861C17.411 14.2988 16.9374 13.4589 16.569 12.5666C16.569 12.5141 16.5164 12.4616 16.5164 12.4091C16.4638 12.1467 16.4112 11.9892 16.0428 11.9892C15.6744 11.9892 15.4639 11.6217 15.4639 11.2543C15.5166 10.8869 15.7797 10.6244 16.2007 10.5719C16.7795 10.5719 17.411 10.5719 17.9899 10.5719C18.0951 10.5719 18.1477 10.5719 18.253 10.5719C18.253 10.362 18.253 10.2045 18.253 9.99452C18.253 9.5221 18.5161 9.15466 18.9371 9.15466C19.3581 9.15466 19.6212 9.46961 19.6738 9.99452C19.6738 10.2045 19.6738 10.362 19.6738 10.5719C20.0948 10.5719 20.5158 10.5719 20.9368 10.5719C21.1999 10.5719 21.5156 10.5719 21.7787 10.5719C22.1997 10.5719 22.5155 10.8869 22.5155 11.2543C22.5155 11.6217 22.1997 11.9367 21.7787 11.9892C21.7261 11.9892 21.5683 12.0417 21.5683 12.0942C21.1999 13.144 20.6737 14.0888 19.9369 14.9812C19.9369 14.9812 19.9369 15.0337 19.8843 15.0861C20.4105 15.5061 20.9368 15.8735 21.4104 16.2934C21.6209 16.4509 21.7787 16.7134 21.7261 16.9758C21.6209 17.5007 21.042 17.7632 20.5684 17.3958C20.0422 17.0283 19.5686 16.6084 19.0423 16.1885C18.8845 16.031 18.7792 16.031 18.6213 16.1885C18.1477 16.6084 17.6741 16.9758 17.1479 17.3958C16.7269 17.7107 16.148 17.5007 16.0428 16.9758C15.9902 16.6609 16.0954 16.4509 16.3059 16.2934C16.7269 15.9785 17.0953 15.6111 17.5162 15.2961C17.832 15.2961 17.9372 15.1911 18.0425 15.0861ZM17.8846 11.9892C18.1477 12.7241 18.5161 13.4064 19.0423 14.0363C19.5686 13.4064 19.9369 12.7765 20.2527 11.9892C19.4107 11.9892 18.674 11.9892 17.8846 11.9892Z" fill="white"/>
<path d="M11.9998 21.1547C11.3517 21.862 10.7035 22.5692 10.0553 23.2765C9.94728 23.3854 9.83925 23.4942 9.78524 23.603C9.62319 23.8206 9.51517 23.7662 9.29911 23.6574C8.70494 23.2221 8.38085 22.6781 8.27282 21.9708C8.21881 21.6987 8.21881 21.4267 8.16479 21.1547C9.46115 21.1547 10.7035 21.1547 11.9998 21.1547Z" fill="#333333"/>
<path d="M6.1945 6.43304C6.2449 6.43304 6.2953 6.43304 6.3457 6.43304C6.3961 6.43304 6.3961 6.43304 6.49691 6.43304C6.69851 7.35738 6.84971 8.23036 7.05132 9.15469C6.59771 9.15469 6.1441 9.15469 5.69049 9.15469C5.84169 8.28171 5.9929 7.35738 6.1945 6.43304Z" fill="#333333"/>
<path d="M17.9377 12C18.7212 12 19.5047 12 20.2882 12C20.027 12.755 19.6092 13.456 19.0868 14.1031C18.5645 13.456 18.1989 12.8089 17.9377 12Z" fill="#333333"/>
</svg>
