<svg width="26" height="26" viewBox="0 0 26 26" fill="none" xmlns="http://www.w3.org/2000/svg">
<g clip-path="url(#clip0_2_849)">
<path d="M25.1824 8.46016C25.35 8.89688 25.2078 9.38945 24.8625 9.70937L22.6637 11.7102C22.7195 12.1316 22.75 12.5633 22.75 13C22.75 13.4367 22.7195 13.8684 22.6637 14.2898L24.8625 16.2906C25.2078 16.6105 25.35 17.1031 25.1824 17.5398C24.959 18.1441 24.6898 18.7281 24.3852 19.2816L24.1465 19.693C23.8113 20.2516 23.4355 20.7797 23.0242 21.2824C22.7195 21.643 22.227 21.7699 21.7801 21.6277L18.9516 20.7238C18.2711 21.2469 17.4738 21.6836 16.7172 22.0188L16.0824 24.9184C15.9809 25.3754 15.6254 25.7004 15.1582 25.8223C14.4574 25.9391 13.7363 26 12.9543 26C12.2637 26 11.5426 25.9391 10.8418 25.8223C10.3746 25.7004 10.0191 25.3754 9.91758 24.9184L9.28281 22.0188C8.48047 21.6836 7.72891 21.2469 7.04844 20.7238L4.22195 21.6277C3.77305 21.7699 3.27793 21.643 2.97731 21.2824C2.56547 20.7797 2.18969 20.2516 1.85453 19.693L1.61688 19.2816C1.30863 18.7281 1.04051 18.1441 0.815547 17.5398C0.651016 17.1031 0.789649 16.6105 1.13801 16.2906L3.33481 14.2898C3.27895 13.8684 3.25 13.4367 3.25 13C3.25 12.5633 3.27895 12.1316 3.33481 11.7102L1.13801 9.70937C0.789649 9.38945 0.651016 8.90195 0.815547 8.46016C1.04051 7.85586 1.30914 7.27187 1.61688 6.71836L1.85402 6.30703C2.18969 5.74844 2.56547 5.22031 2.97731 4.72012C3.27793 4.35703 3.77305 4.23109 4.22195 4.3743L7.04844 5.27617C7.72891 4.75109 8.48047 4.31437 9.28281 3.98277L9.91758 1.08316C10.0191 0.62207 10.3746 0.255937 10.8418 0.178242C11.5426 0.0609883 12.2637 0 13 0C13.7363 0 14.4574 0.0609883 15.1582 0.178242C15.6254 0.255937 15.9809 0.62207 16.0824 1.08316L16.7172 3.98277C17.4738 4.31437 18.2711 4.75109 18.9516 5.27617L21.7801 4.3743C22.227 4.23109 22.7195 4.35703 23.0242 4.72012C23.4355 5.22031 23.8113 5.74844 24.1465 6.30703L24.3852 6.71836C24.6898 7.27187 24.959 7.85586 25.1824 8.46016ZM13 17.0625C15.2445 17.0625 17.0625 15.2445 17.0625 12.9543C17.0625 10.7555 15.2445 8.8918 13 8.8918C10.7555 8.8918 8.9375 10.7555 8.9375 12.9543C8.9375 15.2445 10.7555 17.0625 13 17.0625Z" fill="#053954"/>
</g>
<defs>
<clipPath id="clip0_2_849">
<rect width="26" height="26" fill="white"/>
</clipPath>
</defs>
</svg>
