<svg width="96" height="96" viewBox="0 0 96 96" fill="none" xmlns="http://www.w3.org/2000/svg">
<g clip-path="url(#clip0_1_104)">
<path d="M21.4688 0.0563622C33.315 0.0563622 42.9376 9.67895 42.9376 21.5378V40.4046C42.9376 41.8446 41.7693 43.0135 40.3302 43.0135H21.4744C9.61693 43.0135 0 33.3853 0 21.5321C0 9.67895 9.61693 0.0563622 21.4688 0.0563622Z" fill="white"/>
<path d="M74.3166 43.0139L55.4609 43.0139C54.0217 43.0139 52.8534 41.8449 52.8534 40.4049V21.5381C52.8534 9.68494 62.4704 0.0567055 74.3222 0.0567055C86.1684 0.0567055 95.791 9.67929 95.791 21.5381C95.791 33.3913 86.1741 43.0195 74.3222 43.0195L74.3166 43.0139Z" fill="white"/>
<path d="M21.4688 52.9353H40.3245C41.7637 52.9353 42.9319 54.1042 42.9319 55.5442V74.411C42.9319 86.2642 33.315 95.8924 21.4631 95.8924C9.61693 95.8924 0 86.2699 0 74.4167C0 62.5635 9.61693 52.9353 21.4688 52.9353Z" fill="white"/>
</g>
<defs>
<clipPath id="clip0_1_104">
<rect width="96" height="96" fill="white"/>
</clipPath>
</defs>
</svg>
