<svg width="28" height="28" viewBox="0 0 28 28" fill="none" xmlns="http://www.w3.org/2000/svg">
<path d="M26 12.6334V8.66675C26 7.95951 25.719 7.28123 25.2189 6.78113C24.7188 6.28104 24.0405 6.00009 23.3333 6.00009H15.3333V4.25075C15.74 3.88542 16 3.36009 16 2.77075C16 2.24032 15.7892 1.73161 15.4142 1.35654C15.0391 0.981466 14.5304 0.770752 14 0.770752C13.4695 0.770752 12.9608 0.981466 12.5857 1.35654C12.2107 1.73161 12 2.24032 12 2.77075C12 3.36009 12.26 3.88542 12.6666 4.25075V6.00009H4.66663C3.95938 6.00009 3.28111 6.28104 2.78101 6.78113C2.28091 7.28123 1.99996 7.95951 1.99996 8.66675V12.6641L1.90396 12.6708C1.56781 12.6947 1.25323 12.8452 1.02363 13.0919C0.794018 13.3385 0.666449 13.6631 0.666626 14.0001V16.6668C0.666626 17.0204 0.807102 17.3595 1.05715 17.6096C1.3072 17.8596 1.64634 18.0001 1.99996 18.0001V24.6668C1.99996 25.374 2.28091 26.0523 2.78101 26.5524C3.28111 27.0525 3.95938 27.3334 4.66663 27.3334H23.3333C24.0405 27.3334 24.7188 27.0525 25.2189 26.5524C25.719 26.0523 26 25.374 26 24.6668V18.0001C26.3536 18.0001 26.6927 17.8596 26.9428 17.6096C27.1928 17.3595 27.3333 17.0204 27.3333 16.6668V14.0828C27.3487 13.8758 27.3159 13.6681 27.2373 13.4761C26.968 12.8254 26.3906 12.6694 26 12.6334ZM7.33329 14.0001C7.33329 12.5281 8.22929 11.3334 9.33329 11.3334C10.4373 11.3334 11.3333 12.5281 11.3333 14.0001C11.3333 15.4721 10.4373 16.6668 9.33329 16.6668C8.22929 16.6668 7.33329 15.4721 7.33329 14.0001ZM19.3306 22.0001C17.996 21.9961 8.66663 22.0001 8.66663 22.0001V19.3334C8.66663 19.3334 18.0013 19.3308 19.336 19.3334L19.3306 22.0001ZM18.6666 16.6668C17.5626 16.6668 16.6666 15.4721 16.6666 14.0001C16.6666 12.5281 17.5626 11.3334 18.6666 11.3334C19.7706 11.3334 20.6666 12.5281 20.6666 14.0001C20.6666 15.4721 19.7706 16.6668 18.6666 16.6668Z" fill="#0284C7" fill-opacity="0.8"/>
</svg>
