<svg width="30" height="25" viewBox="0 0 30 25" fill="none" xmlns="http://www.w3.org/2000/svg">
<path d="M30 23.8636C30 24.165 29.8784 24.4541 29.662 24.6672C29.4457 24.8803 29.1522 25 28.8462 25H1.15385C0.847827 25 0.554342 24.8803 0.337954 24.6672C0.121566 24.4541 0 24.165 0 23.8636C0 23.5623 0.121566 23.2732 0.337954 23.0601C0.554342 22.847 0.847827 22.7273 1.15385 22.7273H28.8462C29.1522 22.7273 29.4457 22.847 29.662 23.0601C29.8784 23.2732 30 23.5623 30 23.8636ZM30 2.27273V18.1818C30 18.7846 29.7569 19.3627 29.3241 19.7889C28.8913 20.2151 28.3043 20.4545 27.6923 20.4545H2.30769C1.69565 20.4545 1.10868 20.2151 0.675907 19.7889C0.243131 19.3627 0 18.7846 0 18.1818V2.27273C0 1.66996 0.243131 1.09189 0.675907 0.665666C1.10868 0.239447 1.69565 0 2.30769 0H27.6923C28.3043 0 28.8913 0.239447 29.3241 0.665666C29.7569 1.09189 30 1.66996 30 2.27273ZM20.1923 10.2273C20.1923 10.0447 20.1475 9.8648 20.0619 9.70284C19.9763 9.54089 19.8523 9.40163 19.7005 9.29687L13.9312 5.3196C13.7584 5.20033 13.5556 5.13005 13.345 5.11641C13.1343 5.10276 12.9239 5.14628 12.7367 5.24222C12.5494 5.33817 12.3925 5.48286 12.283 5.66055C12.1734 5.83824 12.1154 6.04212 12.1154 6.25V14.2045C12.1154 14.4124 12.1734 14.6163 12.283 14.794C12.3925 14.9717 12.5494 15.1164 12.7367 15.2123C12.9239 15.3083 13.1343 15.3518 13.345 15.3381C13.5556 15.3245 13.7584 15.2542 13.9312 15.1349L19.7005 11.1577C19.8523 11.0529 19.9763 10.9137 20.0619 10.7517C20.1475 10.5897 20.1923 10.4099 20.1923 10.2273Z" fill="#333333"/>
</svg>
