<svg width="29" height="25" viewBox="0 0 29 25" fill="none" xmlns="http://www.w3.org/2000/svg">
<path d="M28.5533 12.4756C28.5533 13.3545 27.8209 14.043 26.9908 14.043H25.4283L25.4625 21.8604C25.4625 21.9971 25.4528 22.124 25.4381 22.2559V23.0469C25.4381 24.126 24.5641 25 23.485 25H22.7037C22.65 25 22.5963 24.9561 22.5426 24.9951C22.4742 24.9561 22.4059 25 22.3375 25H19.5787C18.4996 25 17.6256 24.126 17.6256 23.0469V18.75C17.6256 17.8857 16.9274 17.1875 16.0631 17.1875H12.9381C12.0739 17.1875 11.3756 17.8857 11.3756 18.75V23.0469C11.3756 24.126 10.5016 25 9.42249 25H6.69299C6.61975 25 6.54651 24.9951 6.47327 24.9902C6.41467 24.9951 6.35608 25 6.29749 25H5.51624C4.43762 25 3.56311 24.126 3.56311 23.0469V17.5781C3.56311 17.5342 3.56457 17.4854 3.5675 17.4414V14.043H2.00305C1.12268 14.043 0.43811 13.3545 0.43811 12.4756C0.43811 12.0361 0.58479 11.6455 0.92688 11.3037L13.4459 0.391406C13.7877 0.0489258 14.1783 0 14.5201 0C14.8619 0 15.2526 0.0978515 15.5504 0.34248L28.0162 11.3037C28.4069 11.6455 28.6071 12.0361 28.5533 12.4756Z" fill="white"/>
</svg>
