<svg width="26" height="26" viewBox="0 0 26 26" fill="none" xmlns="http://www.w3.org/2000/svg">
<g clip-path="url(#clip0_1_986)">
<path d="M18.3333 17C20.0747 17 21.5573 18.1133 22.1067 19.6667H23.6667C24.0203 19.6667 24.3594 19.8071 24.6095 20.0572C24.8595 20.3072 25 20.6464 25 21C25 21.3536 24.8595 21.6928 24.6095 21.9428C24.3594 22.1929 24.0203 22.3333 23.6667 22.3333H22.1067C21.8312 23.114 21.3203 23.7901 20.6445 24.2683C19.9687 24.7465 19.1612 25.0033 18.3333 25.0033C17.5054 25.0033 16.6979 24.7465 16.0221 24.2683C15.3463 23.7901 14.8355 23.114 14.56 22.3333H2.33333C1.97971 22.3333 1.64057 22.1929 1.39052 21.9428C1.14048 21.6928 1 21.3536 1 21C1 20.6464 1.14048 20.3072 1.39052 20.0572C1.64057 19.8071 1.97971 19.6667 2.33333 19.6667H14.56C14.8358 18.8865 15.3469 18.211 16.0227 17.7334C16.6985 17.2558 17.5058 16.9996 18.3333 17ZM7.66667 9C8.45199 8.99989 9.21996 9.23096 9.87485 9.66439C10.5297 10.0978 11.0425 10.7144 11.3493 11.4373L11.4387 11.6667H23.6667C24.0065 11.667 24.3334 11.7972 24.5805 12.0305C24.8276 12.2638 24.9763 12.5826 24.9962 12.9219C25.0161 13.2611 24.9058 13.5952 24.6876 13.8558C24.4695 14.1164 24.1601 14.2839 23.8227 14.324L23.6667 14.3333H11.44C11.1712 15.0937 10.6789 15.7551 10.0276 16.2308C9.37639 16.7065 8.59658 16.9744 7.79047 16.9991C6.98436 17.0239 6.18956 16.8046 5.5103 16.3698C4.83104 15.935 4.29902 15.3051 3.984 14.5627L3.89333 14.3333H2.33333C1.99349 14.333 1.66662 14.2028 1.41951 13.9695C1.17239 13.7362 1.02369 13.4174 1.00377 13.0781C0.983854 12.7389 1.09423 12.4048 1.31235 12.1442C1.53047 11.8836 1.83987 11.7161 2.17733 11.676L2.33333 11.6667H3.89333C4.16918 10.8865 4.68022 10.211 5.35602 9.73341C6.03183 9.25581 6.83913 8.99957 7.66667 9ZM18.3333 1C20.0747 1 21.5573 2.11333 22.1067 3.66667H23.6667C24.0203 3.66667 24.3594 3.80714 24.6095 4.05719C24.8595 4.30724 25 4.64638 25 5C25 5.35362 24.8595 5.69276 24.6095 5.94281C24.3594 6.19286 24.0203 6.33333 23.6667 6.33333H22.1067C21.8312 7.11404 21.3203 7.79009 20.6445 8.26828C19.9687 8.74647 19.1612 9.00327 18.3333 9.00327C17.5054 9.00327 16.6979 8.74647 16.0221 8.26828C15.3463 7.79009 14.8355 7.11404 14.56 6.33333H2.33333C1.97971 6.33333 1.64057 6.19286 1.39052 5.94281C1.14048 5.69276 1 5.35362 1 5C1 4.64638 1.14048 4.30724 1.39052 4.05719C1.64057 3.80714 1.97971 3.66667 2.33333 3.66667H14.56C14.8358 2.88646 15.3469 2.21101 16.0227 1.73341C16.6985 1.25581 17.5058 0.999567 18.3333 1Z" fill="#053954"/>
</g>
<defs>
<clipPath id="clip0_1_986">
<rect width="26" height="26" fill="white"/>
</clipPath>
</defs>
</svg>
