<svg width="25" height="25" viewBox="0 0 25 25" fill="none" xmlns="http://www.w3.org/2000/svg">
<path d="M18.4203 8.13332C20.0771 8.13332 21.4203 6.79017 21.4203 5.13332C21.4203 3.47646 20.0771 2.13332 18.4203 2.13332C16.7634 2.13332 15.4203 3.47646 15.4203 5.13332C15.4203 6.79017 16.7634 8.13332 18.4203 8.13332Z" stroke="black" stroke-opacity="0.66" stroke-width="2" stroke-linecap="round" stroke-linejoin="round"/>
<path d="M6.42029 15.1333C8.07714 15.1333 9.42029 13.7902 9.42029 12.1333C9.42029 10.4765 8.07714 9.13332 6.42029 9.13332C4.76343 9.13332 3.42029 10.4765 3.42029 12.1333C3.42029 13.7902 4.76343 15.1333 6.42029 15.1333Z" stroke="black" stroke-opacity="0.66" stroke-width="2" stroke-linecap="round" stroke-linejoin="round"/>
<path d="M18.4203 22.1333C20.0771 22.1333 21.4203 20.7902 21.4203 19.1333C21.4203 17.4765 20.0771 16.1333 18.4203 16.1333C16.7634 16.1333 15.4203 17.4765 15.4203 19.1333C15.4203 20.7902 16.7634 22.1333 18.4203 22.1333Z" stroke="black" stroke-opacity="0.66" stroke-width="2" stroke-linecap="round" stroke-linejoin="round"/>
<path d="M9.01025 13.6433L15.8403 17.6233" stroke="black" stroke-opacity="0.66" stroke-width="2" stroke-linecap="round" stroke-linejoin="round"/>
<path d="M15.8303 6.64331L9.01025 10.6233" stroke="black" stroke-opacity="0.66" stroke-width="2" stroke-linecap="round" stroke-linejoin="round"/>
</svg>
