<svg width="23" height="24" viewBox="0 0 23 24" fill="none" xmlns="http://www.w3.org/2000/svg">
<path fill-rule="evenodd" clip-rule="evenodd" d="M20.2665 2.42827C20.9429 2.65139 21.5316 3.08224 21.9488 3.65945C22.3834 4.25183 22.6122 4.96956 22.6028 5.7042V11.8937C22.6034 13.6137 22.1674 15.3058 21.3356 16.8115C20.5039 18.3171 19.3037 19.587 17.8473 20.5023L13.1026 23.4842C12.5643 23.8213 11.942 24 11.3069 24C10.6718 24 10.0494 23.8213 9.51112 23.4842L4.76643 20.5011C3.30013 19.5821 2.09274 18.304 1.25863 16.7879C0.424534 15.2717 -0.00864651 13.5677 0.000130778 11.8373V5.6478C-0.000626148 4.93376 0.224508 4.23777 0.643317 3.65945C1.05837 3.08365 1.64398 2.65295 2.31728 2.42827L8.07715 0.508316C10.1663 -0.169439 12.4162 -0.169439 14.5054 0.508316L20.2665 2.42827ZM17.2687 9.5124C17.7956 8.97834 17.7899 8.11823 17.2558 7.59129C16.7217 7.06435 15.8616 7.07012 15.3347 7.60418L9.56718 13.4496L7.18262 11.194C6.63758 10.6784 5.77779 10.7023 5.26221 11.2473C4.74663 11.7924 4.77052 12.6522 5.31556 13.1677L8.66642 16.3375C9.20336 16.8454 10.0479 16.8308 10.567 16.3047L17.2687 9.5124Z" fill="#333333"/>
</svg>
