<svg width="19" height="22" viewBox="0 0 19 22" fill="none" xmlns="http://www.w3.org/2000/svg">
<path d="M16 10.29C15.5 10.42 15 10.5 14.5 10.5C13.0421 10.4974 11.6447 9.91705 10.6138 8.88617C9.58295 7.8553 9.00264 6.45788 9 5.00001C9 3.53001 9.58 2.20001 10.5 1.21001C10.3185 0.987546 10.0897 0.808375 9.83021 0.685549C9.57072 0.562723 9.28709 0.499335 9 0.500005C7.9 0.500005 7 1.40001 7 2.50001V2.79001C4.03 3.67001 2 6.40001 2 9.50001V15.5L0 17.5V18.5H18V17.5L16 15.5V10.29ZM9 21.5C10.11 21.5 11 20.61 11 19.5H7C7 20.0304 7.21071 20.5391 7.58579 20.9142C7.96086 21.2893 8.46957 21.5 9 21.5Z" fill="#053954"/>
<circle cx="15" cy="5" r="4" fill="#C40000"/>
</svg>
