<svg width="18" height="22" viewBox="0 0 18 22" fill="none" xmlns="http://www.w3.org/2000/svg">
<path fill-rule="evenodd" clip-rule="evenodd" d="M9 1.77828e-08C8.71334 -3.82072e-05 8.43001 0.0615486 8.16923 0.180587C7.90845 0.299625 7.6763 0.473333 7.48853 0.689937C7.30076 0.906542 7.16174 1.16098 7.0809 1.43601C7.00006 1.71104 6.97929 2.00024 7.02 2.284C5.57037 2.71149 4.29804 3.59668 3.39319 4.80722C2.48835 6.01777 1.9996 7.48865 2 9V17H1C0.734784 17 0.48043 17.1054 0.292893 17.2929C0.105357 17.4804 0 17.7348 0 18C0 18.2652 0.105357 18.5196 0.292893 18.7071C0.48043 18.8946 0.734784 19 1 19H17C17.2652 19 17.5196 18.8946 17.7071 18.7071C17.8946 18.5196 18 18.2652 18 18C18 17.7348 17.8946 17.4804 17.7071 17.2929C17.5196 17.1054 17.2652 17 17 17H16V9C16.0004 7.48865 15.5117 6.01777 14.6068 4.80722C13.702 3.59668 12.4296 2.71149 10.98 2.284C10.9933 2.19067 11 2.096 11 2C11 1.46957 10.7893 0.960859 10.4142 0.585786C10.0391 0.210714 9.53043 1.77828e-08 9 1.77828e-08ZM11 21C11 21.2652 10.8946 21.5196 10.7071 21.7071C10.5196 21.8946 10.2652 22 10 22H8C7.73478 22 7.48043 21.8946 7.29289 21.7071C7.10536 21.5196 7 21.2652 7 21C7 20.7348 7.10536 20.4804 7.29289 20.2929C7.48043 20.1054 7.73478 20 8 20H10C10.2652 20 10.5196 20.1054 10.7071 20.2929C10.8946 20.4804 11 20.7348 11 21Z" fill="#333333"/>
</svg>
