<svg width="22" height="23" viewBox="0 0 22 23" fill="none" xmlns="http://www.w3.org/2000/svg">
<path d="M11 0C8.08262 0 5.28473 1.2116 3.22183 3.36827C1.15893 5.52494 0 8.45 0 11.5C0 13.3376 0.412923 15.0774 1.14851 16.6213C1.26585 16.869 1.27713 17.2382 1.14287 17.8126C1.07178 18.1028 0.988968 18.3896 0.894667 18.6724L0.860821 18.7739C0.777333 19.0334 0.687077 19.3164 0.619385 19.5795C0.18841 21.2626 1.66185 22.803 3.27067 22.3524C3.52339 22.2817 3.79303 22.1873 4.04236 22.1L4.13938 22.0647C4.40991 21.9661 4.68431 21.8795 4.96185 21.8052C5.51128 21.6636 5.86441 21.6754 6.10133 21.7993C7.62286 22.5918 9.30007 23.0029 11 23C17.0754 23 22 17.8515 22 11.5C22 5.14846 17.0754 0 11 0Z" fill="#333333"/>
</svg>
