<svg width="29" height="25" viewBox="0 0 29 25" fill="none" xmlns="http://www.w3.org/2000/svg">
<path fill-rule="evenodd" clip-rule="evenodd" d="M14.5 25.0001L12.9884 23.6733C13.2177 23.1615 13.4486 22.6505 13.6836 22.1416C13.7757 21.932 13.9578 21.772 14.1368 21.6146C14.2099 21.5505 14.2824 21.4867 14.3481 21.4202C14.421 21.5053 14.5054 21.5844 14.5902 21.6638L14.5902 21.6638C14.7505 21.814 14.9116 21.965 14.9964 22.158C15.2626 22.7296 15.5247 23.3012 15.7843 23.8728L14.5 25.0001ZM0.369537 7.49321C0.369537 12.1393 4.3007 16.0274 10.4373 21.4364L10.588 20.5513C10.6367 20.2562 10.6871 19.9611 10.7375 19.6659C10.8384 19.0757 10.9392 18.4855 11.0256 17.8952C11.2039 16.6 10.7663 15.5507 9.74528 14.7309C8.99991 14.1244 8.25454 13.5138 7.50917 12.9032L7.50865 12.9028C6.76314 12.292 6.01762 11.6813 5.27211 11.0747C4.86693 10.7468 4.47796 10.3861 4.89934 9.84503C5.27211 9.35317 5.7097 9.5991 6.11488 9.86143C6.57163 10.1442 7.02838 10.429 7.48559 10.714C8.91032 11.6022 10.3396 12.4932 11.7874 13.3373C13.4729 14.321 15.2395 14.321 16.925 13.3373C18.5304 12.4014 20.1128 11.4194 21.6917 10.4396L21.6939 10.4382C21.9952 10.2512 22.2964 10.0643 22.5975 9.87782C23.0189 9.61549 23.4565 9.38596 23.8131 9.86143C24.2183 10.4025 23.8293 10.7632 23.4241 11.0911C22.6787 11.6976 21.9374 12.3082 21.196 12.9189L21.1955 12.9193C20.4541 13.53 19.7126 14.1407 18.9671 14.7473C17.8813 15.6326 17.4761 16.7475 17.7192 18.1411C17.9247 19.3087 18.1211 20.4809 18.3153 21.6542C24.5934 16.1312 28.6305 12.2015 28.6305 7.49321C28.6305 3.28339 25.2109 0 20.8587 0C18.4 0 16.0402 1.10354 14.5 2.83379C12.9598 1.10354 10.6 0 8.14129 0C3.78911 0 0.369537 3.28339 0.369537 7.49321ZM14.3479 11.1731C15.92 11.1731 17.1842 9.91067 17.1842 8.32031C17.1842 6.72995 15.92 5.43471 14.3641 5.43471C12.8245 5.43471 11.5279 6.72995 11.5117 8.30392C11.4955 9.84509 12.8082 11.1731 14.3479 11.1731Z" fill="white"/>
</svg>
