<svg width="14" height="14" viewBox="0 0 14 14" fill="none" xmlns="http://www.w3.org/2000/svg">
<path d="M8.75 14V9.27413C9.14986 9.04408 9.48201 8.71269 9.71297 8.31336C9.94393 7.91403 10.0655 7.46087 10.0655 6.99956C10.0655 6.53825 9.94393 6.08509 9.71297 5.68576C9.48201 5.28643 9.14986 4.95504 8.75 4.725V0L4.08362 3.5H0V10.5H4.08362L8.75 14Z" fill="#333333"/>
<path d="M11.9 2.79999L11.2009 2.27499L10.15 3.67412L10.85 4.19912C11.1155 4.39864 11.3512 4.63493 11.55 4.90087C11.9901 5.48537 12.25 6.21074 12.25 6.99999C12.25 7.78924 11.9901 8.51374 11.55 9.09999C11.351 9.36531 11.1153 9.60101 10.85 9.79999L10.15 10.3259L11.2009 11.7259L11.9009 11.2C12.2983 10.9014 12.6512 10.5479 12.9491 10.15C13.6322 9.24195 14.001 8.13624 14 6.99999C14 5.81874 13.6089 4.72674 12.95 3.84999C12.6515 3.45201 12.298 3.09848 11.9 2.79999Z" fill="#333333"/>
</svg>
